<?xml version="1.0" encoding="UTF-8"?>
<svg version="1.1" xmlns="http://www.w3.org/2000/svg" width="32" height="32">
<path d="M0 0 C10.56 0 21.12 0 32 0 C32 10.56 32 21.12 32 32 C21.44 32 10.88 32 0 32 C0 21.44 0 10.88 0 0 Z " fill="#FDFDFD" transform="translate(0,0)"/>
<path d="M0 0 C0.99 0 1.98 0 3 0 C2.25 7.625 2.25 7.625 0 11 C-0.66 11 -1.32 11 -2 11 C-2 12.32 -2 13.64 -2 15 C-7.94 15.495 -7.94 15.495 -14 16 C-17 5.5 -17 5.5 -17 1 C-12.71 1 -8.42 1 -4 1 C-4.33 1.99 -4.66 2.98 -5 4 C-7.31 3.67 -9.62 3.34 -12 3 C-13.231394 6.69418201 -12.64432764 9.2056261 -12 13 C-9.03 13 -6.06 13 -3 13 C-2.690625 11.5975 -2.38125 10.195 -2.0625 8.75 C-1.41650906 5.82150775 -0.73989213 2.90624297 0 0 Z " fill="#BCBCBC" transform="translate(23,8)"/>
<path d="M0 0 C2.1640625 0.0234375 2.1640625 0.0234375 4.625 0.375 C5.85089844 0.54128906 5.85089844 0.54128906 7.1015625 0.7109375 C7.72804688 0.80632813 8.35453125 0.90171875 9 1 C10.125 7.625 10.125 7.625 9 11 C6.03 11 3.06 11 0 11 C-0.38909985 9.54536519 -0.76088029 8.08608793 -1.125 6.625 C-1.33382813 5.81289062 -1.54265625 5.00078125 -1.7578125 4.1640625 C-1.83773438 3.44992187 -1.91765625 2.73578125 -2 2 C-1.34 1.34 -0.68 0.68 0 0 Z " fill="#E5E5E5" transform="translate(11,10)"/>
<path d="M0 0 C4.29 0 8.58 0 13 0 C12.67 0.99 12.34 1.98 12 3 C11.38511719 2.91621094 10.77023438 2.83242187 10.13671875 2.74609375 C9.32847656 2.64425781 8.52023437 2.54242188 7.6875 2.4375 C6.88699219 2.33308594 6.08648437 2.22867187 5.26171875 2.12109375 C2.83182884 1.85244822 2.83182884 1.85244822 0 3 C0 2.01 0 1.02 0 0 Z " fill="#979797" transform="translate(6,9)"/>
</svg>
